<?xml version="1.0" encoding="utf-8"?>
<!-- Generator: Adobe Illustrator 16.0.0, SVG Export Plug-In . SVG Version: 6.00 Build 0)  -->
<!DOCTYPE svg PUBLIC "-//W3C//DTD SVG 1.1//EN" "http://www.w3.org/Graphics/SVG/1.1/DTD/svg11.dtd">
<svg version="1.1" xmlns="http://www.w3.org/2000/svg" xmlns:xlink="http://www.w3.org/1999/xlink" x="0px" y="0px"
	 width="1121.04px" height="851.8px" viewBox="0 0 1121.04 851.8" enable-background="new 0 0 1121.04 851.8" xml:space="preserve">
<g id="Calque_2">
	<path fill="#F1F4F9" d="M239.941,105.444c26.391-37.819,50.481-83.606,100.482-88.759c21.256-2.19,36.703,2.413,43.121,23.16
		c5.057,16.344-1.092,32.695,8.799,47.972c31.273,48.298,107.223,53.444,129.399,111.546c15.432,40.43-24.425,65.604-39.097,100.392
		c-22.839,54.155-4.468,108.996-13.186,164.576c-5.079,32.377-24.651,71.326-58.781,80.379
		c-50.058,13.275-85.176-21.303-123.382-43.986c-17.632-10.471-39.185-25.463-58.999-29.859c-25.381-5.631-55.231,3.01-81.124,3.01
		c-50.78,0-102.014,6.861-120.324-51.116c-7.531-23.847-10.939-40.065,0.367-63.055c14.401-29.278,40.657-53.877,53.629-81.767"/>
	<path fill="#E6EAF0" d="M808.307,571.674c-7.035-16.884-2.31-34.437-7.127-51.198c-4.126-14.349-15.345-24.153-25.737-34.244
		c-23.154-22.483-51.896-33.101-82.109-22.539c-35.573,12.434-72.237,23.387-104.976,40.121
		c-28.452,14.542-59.603,27.56-67.941,59.534c-5.643,21.638,3.699,40.627,6.66,61.329c3.201,22.392,2.687,47.451-3.663,68.588
		C514.4,723.276,489,762.078,507.08,795.836c28.719,53.622,116.713,32.998,159.266,17.439
		c69.133-25.274,150.619-37.234,219.947-9.902c40.216,15.855,100.762,33.857,141.924,13.688
		c40.596-19.89,70.659-53.687,73.355-100.546c2.181-37.904-28.727-74.452-55.369-97.821c-25.286-22.177-62.929-37.382-95.854-42.103
		c-22.938-3.289-48.833,0.08-72.06,0.08"/>
	<path fill="#FFEFF9" d="M758.101,184.002c27.122-9.45,41.835-39.73,62.949-58.284c10.752-9.448,24.691-22.243,37.962-30.294
		c18.916-11.477,35.067-10.225,56.213-9.25c41.855,1.929,70.944-20.5,108.29-31.17c35.547-10.156,85.063-15.355,93.063,31.587
		c7.313,42.913-30.216,62.828-58.078,87.324c-28.095,24.7-43.287,51.025-54.788,86.56c-10.038,31.02-12.037,70.986-29.181,98.531
		c-23.916,38.428-72.237,22.667-102.406,2.096c-35.295-24.067-64.327-37.16-103.489-51.187
		c-25.693-9.203-47.795-22.867-55.495-49.42c-11.589-39.968,22.229-57.812,49.461-76.491"/>
	<path fill="none" stroke="#9391BF" stroke-width="4" stroke-linecap="round" stroke-miterlimit="10" stroke-dasharray="2,10" d="
		M887.031,200.467c-25.554,16.534-59.961,23.347-89.822,27.171c-5.949,0.762-19.587,0.34-25,3.25
		c-4.689,2.522-10.042,10.159-13.955,13.853c-15.358,14.497-27.4,30.477-44.307,43.751c-49.852,39.141-122.671,32.313-181.859,26.95
		c-66.761-6.049-131.649-34.653-199.148-32.998c-31.691,0.777-87.486,11.871-90.909,50.996
		c-4.542,51.928,50.41,73.823,91.098,87.999c46.501,16.201,100.197,25.303,139.882,54.231c27.7,20.191,45.958,53.008,67.217,78.968
		c16.763,20.468,27.564,43.746,56.833,47.904c36.429,5.175,72.66-14.805,93.998-42.298c9.619-12.393,14.942-27.435,21.425-41.706
		c9.8-21.573,23.893-39.534,40.344-56.146c15.287-15.436,28.13-32.328,45.171-46.532c14.472-12.061,29.505-22.54,41.978-37.146
		c15.623-18.297,30.192-36.786,42.1-58.21c7.442-13.393,12.378-27.897,19.48-41.639c5.233-10.126,14.543-20.365,12.471-32.446
		c-1.943-11.337-23.182-38.649-35.996-39.952"/>
</g>
<g id="_x38_13c2686-e70f-4fb0-bf6b-a2eb7b1db384">
	<g>
		<linearGradient id="SVGID_1_" gradientUnits="userSpaceOnUse" x1="756.1392" y1="532.6626" x2="971.1079" y2="747.6313">
			<stop  offset="0.0798" style="stop-color:#D9D7E7"/>
			<stop  offset="0.5191" style="stop-color:#FEB0DE"/>
			<stop  offset="0.5865" style="stop-color:#FAAFDD"/>
			<stop  offset="0.6512" style="stop-color:#EFACDA"/>
			<stop  offset="0.715" style="stop-color:#DBA6D4"/>
			<stop  offset="0.7782" style="stop-color:#C09ECC"/>
			<stop  offset="0.8403" style="stop-color:#9D94C2"/>
			<stop  offset="0.8564" style="stop-color:#9391BF"/>
		</linearGradient>
		<path fill="url(#SVGID_1_)" d="M1015.634,640.216c0,1.359,0,2.641-0.08,4c-0.08,1.2-0.08,2.32-0.16,3.52
			c0,1.041-0.08,2.08-0.16,3.121c-5.93,83.791-78.66,146.91-162.451,140.98c-12.585-0.889-25.01-3.342-36.988-7.301
			c-6.902-2.309-13.639-5.09-20.16-8.32c-27.453-13.816-50.073-35.629-64.881-62.561c-1.039-1.68-1.92-3.359-2.8-5.119
			c-4.349-8.492-7.858-17.387-10.479-26.561l-0.961-3.359c-0.399-1.6-0.799-3.199-1.039-4.801c-1.531-6.391-2.574-12.89-3.12-19.439
			c-0.483-4.705-0.724-9.431-0.72-14.16c0-1.2,0-2.4,0.08-3.6c-0.014-0.402,0.014-0.805,0.08-1.2
			c0.234-10.574,1.629-21.091,4.159-31.36l0.24-0.96c20.49-81.408,103.096-130.792,184.503-110.302
			c15.531,3.91,30.346,10.248,43.896,18.781c3.76,2.32,7.361,4.881,10.881,7.521c1.68,1.28,3.279,2.56,4.879,3.841
			c1.602,1.279,3.041,2.56,4.561,3.92c10.51,9.388,19.641,20.215,27.121,32.159c1.439,2.24,2.799,4.48,4.08,6.72
			c6.809,12.134,11.949,25.131,15.279,38.641c0.16,0.72,0.32,1.359,0.48,2.08c1.623,7.028,2.719,14.168,3.279,21.359
			C1015.474,631.896,1015.634,636.056,1015.634,640.216L1015.634,640.216z"/>
		<path fill="#DBE3EF" d="M995.115,565.736c-16.4,2.881-36.4,3.121-59.521,12.801c-36.719,15.439-27.6,38.479-64.398,38.479
			c-54.018-0.422-107.883,5.757-160.4,18.4c0.234-10.574,1.629-21.091,4.159-31.36c25.841-5.76,54.16-17.76,101.12-17.76
			c36.721,0,27.6-38.48,73.52-38.48c26.018-1.41,51.4-8.568,74.32-20.959c10.51,9.388,19.641,20.215,27.121,32.159
			C992.474,561.256,993.833,563.497,995.115,565.736z"/>
		<path fill="#DBE3EF" d="M1014.634,640.216c0,1.359,0,2.641-0.08,4c-0.08,1.2-0.08,2.32-0.16,3.52
			c-18.84,1.085-36.775,8.434-50.961,20.881c-36.08,34.4-44.24,25.84-90.238,25.84c-54.241,0-45.201,25.76-72.241,25.76
			c-29.36,0-47.04-11.6-71.2-6.561c-1.039-1.68-1.92-3.359-2.8-5.119c-4.349-8.492-7.858-17.387-10.479-26.561
			c48.146-13.311,97.742-20.672,147.68-21.92c90.32,0,54.16-51.52,117.359-51.52c9.824,0.021,19.637-0.673,29.361-2.08
			c1.623,7.028,2.719,14.168,3.279,21.359C1014.474,631.896,1014.634,636.056,1014.634,640.216L1014.634,640.216z"/>
		<path fill="#FED8EF" d="M783.634,544.216h16v16h-16V544.216z"/>
		<path fill="#FED8EF" d="M815.634,520.216h16v16h-16V520.216z"/>
		<path fill="#FED8EF" d="M799.634,736.216h16v16h-16V736.216z"/>
		<path fill="#FED8EF" d="M839.634,720.216h16v16h-16V720.216z"/>
		<path fill="#FED8EF" d="M1015.234,650.857c-28.168,30.273-60.078,56.834-94.961,79.039
			c-33.012,21.492-67.996,39.787-104.479,54.641c-16.064,6.545-32.523,12.074-49.281,16.561c-17.268,4.908-35.092,7.596-53.039,8
			c-24.721,0-42.16-7.201-51.36-21.281c-20.319-31.52,10.16-89.039,50.24-133.439c0.546,6.55,1.589,13.049,3.12,19.439
			c-35.84,42.721-53.2,86.641-40.721,105.76c10.561,16.4,42.641,18.881,88,7.041c10.561-2.721,21.521-6.24,32.881-10.4
			c40.883-15.262,79.947-35.01,116.48-58.879c38.498-24.695,73.207-54.85,103.039-89.521c35.039-41.76,51.359-81.279,37.359-102.8
			c-11.68-18-54.24-11.52-92.16-2.079c-1.6-1.281-3.199-2.561-4.879-3.841c-3.52-2.64-7.121-5.2-10.881-7.521
			c52.801-14.239,102.641-22.319,120.561,5.281C1082.833,544.136,1065.074,596.216,1015.234,650.857L1015.234,650.857z"/>
	</g>
	<g>
		<linearGradient id="SVGID_2_" gradientUnits="userSpaceOnUse" x1="187.1123" y1="233.7021" x2="187.1123" y2="608.4766">
			<stop  offset="0.2128" style="stop-color:#C4C1FF"/>
			<stop  offset="0.9734" style="stop-color:#FEB0DE"/>
		</linearGradient>
		<path fill="url(#SVGID_2_)" d="M187.111,233.702c103.495,0,187.386,83.895,187.386,187.383
			c0,103.494-83.892,187.391-187.386,187.391c-103.49,0-187.384-83.896-187.384-187.391
			C-0.273,317.597,83.622,233.702,187.111,233.702z"/>
		<linearGradient id="SVGID_3_" gradientUnits="userSpaceOnUse" x1="163.6899" y1="280.5483" x2="179.3018" y2="280.5483">
			<stop  offset="0.1277" style="stop-color:#D1D1D7"/>
			<stop  offset="0.2926" style="stop-color:#DADADF"/>
			<stop  offset="0.3965" style="stop-color:#B7B7BB"/>
			<stop  offset="0.5134" style="stop-color:#97979B"/>
			<stop  offset="0.6257" style="stop-color:#808083"/>
			<stop  offset="0.7301" style="stop-color:#727275"/>
			<stop  offset="0.8191" style="stop-color:#6D6D70"/>
			<stop  offset="0.8587" style="stop-color:#6A6A6D;stop-opacity:0.9231"/>
			<stop  offset="0.8919" style="stop-color:#606062;stop-opacity:0.8584"/>
			<stop  offset="0.9229" style="stop-color:#505051;stop-opacity:0.7982"/>
			<stop  offset="0.9523" style="stop-color:#393938;stop-opacity:0.741"/>
			<stop  offset="0.9734" style="stop-color:#242422;stop-opacity:0.7"/>
		</linearGradient>
		<path fill="url(#SVGID_3_)" d="M171.497,272.74c4.312,0,7.805,3.496,7.805,7.808c0,4.313-3.493,7.808-7.805,7.808
			c-4.313,0-7.807-3.495-7.807-7.808C163.69,276.236,167.183,272.74,171.497,272.74z"/>
		<linearGradient id="SVGID_4_" gradientUnits="userSpaceOnUse" x1="241.7666" y1="538.2017" x2="257.3862" y2="538.2017">
			<stop  offset="0.1277" style="stop-color:#D1D1D7"/>
			<stop  offset="0.2926" style="stop-color:#DADADF"/>
			<stop  offset="0.3965" style="stop-color:#B7B7BB"/>
			<stop  offset="0.5134" style="stop-color:#97979B"/>
			<stop  offset="0.6257" style="stop-color:#808083"/>
			<stop  offset="0.7301" style="stop-color:#727275"/>
			<stop  offset="0.8191" style="stop-color:#6D6D70"/>
			<stop  offset="0.8587" style="stop-color:#6A6A6D;stop-opacity:0.9231"/>
			<stop  offset="0.8919" style="stop-color:#606062;stop-opacity:0.8584"/>
			<stop  offset="0.9229" style="stop-color:#505051;stop-opacity:0.7982"/>
			<stop  offset="0.9523" style="stop-color:#393938;stop-opacity:0.741"/>
			<stop  offset="0.9734" style="stop-color:#242422;stop-opacity:0.7"/>
		</linearGradient>
		<path fill="url(#SVGID_4_)" d="M249.576,530.392c4.309,0,7.81,3.502,7.81,7.811c0,4.316-3.501,7.809-7.81,7.809
			c-4.316,0-7.81-3.492-7.81-7.809C241.767,533.894,245.26,530.392,249.576,530.392z"/>
		<path fill="#E2E2E2" d="M357.66,345.672c-7.227-16.396-16.708-31.558-28.088-45.098c-54.166,8.622-166.881,26.821-166.881,26.821
			L357.66,345.672z"/>
		<path fill="#E2E2E2" d="M351.409,509.386c7.686-14.359,13.525-29.836,17.273-46.123l-252.841,28.096
			C115.841,491.359,264.568,502.445,351.409,509.386z"/>
		<path fill="#E2E2E2" d="M3.553,388.849c-1.817,10.478-2.826,21.235-2.826,32.236c0,4.25,0.194,8.45,0.466,12.627l163.497-20.434
			C164.69,413.279,66.095,398.04,3.553,388.849z"/>
	</g>
	<title>interaction design</title>
	
		<path opacity="0.3" fill="none" stroke="#000000" stroke-width="0.75" stroke-miterlimit="10" stroke-dasharray="12" enable-background="new    " d="
		M863.731,87.55c8.289-0.89,17.158-0.64,24.27,3.73c7.529,4.63,11.879,13.27,13.34,22c1.459,8.73,0.439,17.65-0.6,26.43l-5.6,47.36
		c-0.791,6.63-1.551,13.53,0.6,19.86c2.148,6.33,8.1,11.89,14.75,11.3"/>
	<g>
		<path fill="#2F2E41" d="M660.092,419.847c0,0,2.207,7.36-10.303,13.981c-12.512,6.625-16.189,31.645-1.475,39.004
			c14.719,7.357,19.135,16.926,11.773,23.547c-7.359,6.623-20.604,24.283-2.943,28.699c17.662,4.414,19.869,13.244,14.721,16.926
			c-5.15,3.678,11.771-6.623,11.771-6.623s2.943,17.66,18.396,13.244c15.455-4.414,58.869-88.305,36.795-100.078
			C716.754,436.771,660.092,419.847,660.092,419.847z"/>
		<path fill="#FFE3E3" d="M686.762,490.908c0,0,7.633,26.717-5.727,28.623c-8.289,1.293-16.145,4.563-22.898,9.541l24.811,32.439
			h45.799l28.625-28.623c0,0-38.168-28.625-30.531-45.801C734.469,469.916,686.762,490.908,686.762,490.908z"/>
		<polygon fill="#FFB9B9" points="698.213,822.955 742.102,838.218 772.635,840.128 770.727,813.412 707.754,794.789 		"/>
		<path fill="#575A89" d="M754.508,817.226c0,0,0,26.717,3.816,26.717c3.814,0,55.34-5.727,70.604,0
			c15.266,5.729,38.168-15.268,26.719-26.717c-11.451-11.451-30.129-28.625-41.779-24.809
			c-11.652,3.816-59.359,13.355-59.359,13.355V817.226L754.508,817.226z"/>
		<path fill="#575A89" d="M614.247,792.419c0,0-22.898,45.801-7.635,49.617c15.27,3.814,32.441-1.908,34.352-3.816
			c1.908-1.91,28.625-9.541,32.439-5.725c3.816,3.813,3.816-15.27,3.816-15.27L614.247,792.419z"/>
		<path fill="#2F2E41" d="M633.329,729.447c0,0-36.26,49.611-9.539,62.973c26.717,13.359,154.568,13.355,164.111,0
			c9.541-13.357,13.359-55.34,0-59.158C774.545,729.447,633.329,729.447,633.329,729.447z"/>
		<path opacity="0.2" enable-background="new    " d="M633.329,729.447c0,0-36.26,49.611-9.539,62.973
			c26.717,13.359,154.568,13.355,164.111,0c9.541-13.357,13.359-55.34,0-59.158C774.545,729.447,633.329,729.447,633.329,729.447z"
			/>
		<circle fill="#FFE3E3" cx="702.026" cy="460.373" r="43.892"/>
		<path fill="#A1A0BB" d="M633.329,529.072l38.168-7.635c0,0,9.541,30.531,40.072,24.811c30.533-5.729,38.166-24.811,38.166-24.811
			s22.9,9.541,24.813,9.541c1.904,0,26.715,9.541,26.715,15.27c0,5.727-28.625,62.975-28.625,62.975l3.814,103.049l-141.215-3.814
			l9.541-101.143L633.329,529.072z"/>
		<path fill="#FFE3E3" d="M612.338,578.687c0,0-11.449,101.143-3.814,108.771c7.633,7.635,38.166,28.627,38.166,28.627v-22.9
			l-15.268-28.625l15.268-66.791L612.338,578.687z"/>
		<path fill="#FFE3E3" d="M809.848,575.826c0,0-6.68,104.004-6.68,107.818s-17.176,17.178-22.9,17.178
			c-5.723,0-9.541-9.543-9.541-9.543l13.357-15.27l-9.543-78.24L809.848,575.826z"/>
		<path fill="#2F2E41" d="M791.719,721.81c0,0,85.877-47.709,87.783,0s-43.895,66.791-43.895,66.791s-118.313,35.48-123.086,22.512
			c-4.77-12.971-14.311-33.963-6.68-35.865c7.635-1.91,17.176-5.729,20.994-1.91c3.813,3.814,51.521-28.623,51.521-28.623
			L791.719,721.81z"/>
		<path opacity="0.2" fill="none" stroke="#000000" stroke-width="2" stroke-miterlimit="10" enable-background="new    " d="
			M831.795,716.089c0,0-17.176,7.633-22.9,13.357c-5.725,5.723-30.533,15.268-30.533,15.268"/>
		<path fill="#A1A0BB" d="M644.778,532.888l-11.449-3.816c0,0-41.98,43.893-28.623,55.342
			c13.355,11.451,20.992,15.266,24.809,19.084c3.816,3.814,22.898,5.725,22.898,5.725L644.778,532.888z"/>
		<path fill="#A1A0BB" d="M784.088,542.429l17.174,3.816c0,0,13.357,28.625,17.176,32.441c3.814,3.814-5.727,1.908-11.451,9.541
			c-5.725,7.635-11.449,20.992-22.898,20.992s-26.717-19.084-26.717-19.084L784.088,542.429z"/>
		<path fill="#2F2E41" d="M637.145,738.988c0,0-72.516-51.525-97.323-13.357c-24.81,38.164,106.866,89.689,125.948,97.322
			c19.084,7.635,36.256,15.268,36.256,15.268s17.178-41.982,17.178-49.615c0-7.635-13.357-7.635-17.178-7.635
			c-3.813,0-20.986-3.816-24.805-9.541S637.145,738.988,637.145,738.988z"/>
		<path opacity="0.2" fill="none" stroke="#000000" stroke-width="2" stroke-miterlimit="10" enable-background="new    " d="
			M597.069,725.63c0,0,19.084,15.266,36.26,19.084c17.178,3.813,22.898,13.354,22.898,13.354"/>
		<path fill="#575A89" d="M623.981,653.876l1.523,80.801c0.105,5.553,4.672,9.986,10.227,9.924l150.361-1.689
			c5.316-0.061,9.68-4.225,9.984-9.531l4.564-79.111c0.32-5.572-3.938-10.355-9.518-10.68c-0.193-0.01-0.389-0.018-0.58-0.018
			H634.094c-5.586,0-10.113,4.529-10.113,10.115C623.979,653.751,623.979,653.81,623.981,653.876z"/>
		<path fill="#2F2E41" d="M704.374,405.237c0,0,2.443,8.152-11.41,15.489c-13.859,7.336-17.939,35.055-1.633,43.206
			c16.305,8.152,21.193,18.75,13.043,26.086c-8.15,7.338-22.824,26.9-3.264,31.793c19.566,4.893,22.014,14.674,16.307,18.75
			c-5.705,4.076,13.045-7.338,13.045-7.338s3.262,19.566,20.379,14.674c17.121-4.891,34.199-93.803,15.117-116.699
			C748.213,409.903,704.374,405.237,704.374,405.237z"/>
		<path fill="#2F2E41" d="M699.167,396.846c0.006-11.943,35.732-3.361,51.055,13.314c10.607,11.547,26.723,28.922,13.219,41.168
			c-13.502,12.244,23.145,28.299,32.973,33.168c9.828,4.861,29.234,19.752,11.713,29.73c-17.521,9.986-17.238,20.066-10.645,22.453
			c6.592,2.387-14.539-3.547-14.539-3.547s2.135,19.717-15.67,19.623c-17.803-0.094-68.881-97.941-56.68-125.137
			C721.936,402.33,699.167,396.846,699.167,396.846z"/>
		<path fill="#2F2E41" d="M706.907,394.228c-47.781-2.877-52.578,33.088-52.578,33.088c0.33,20.814,33.385,10.674,42.563,13.775
			c11.074-7.967,32.426-23.042,47.695-33.803C733.502,399.486,720.442,394.959,706.907,394.228z"/>
	</g>
	<g>
		<linearGradient id="SVGID_5_" gradientUnits="userSpaceOnUse" x1="871.9058" y1="203.2183" x2="1044.9377" y2="376.2502">
			<stop  offset="0.3191" style="stop-color:#DBE3EF"/>
			<stop  offset="0.519" style="stop-color:#C9CFE3"/>
			<stop  offset="0.9272" style="stop-color:#9C9BC5"/>
			<stop  offset="1" style="stop-color:#9391BF"/>
		</linearGradient>
		<path fill="url(#SVGID_5_)" d="M958.423,167.382c67.57,0,122.35,54.777,122.35,122.352s-54.777,122.353-122.35,122.353
			c-67.574,0-122.354-54.778-122.354-122.353S890.849,167.382,958.423,167.382z"/>
		<path fill="#46464D" d="M1064.96,366.55c-23.49,0.004-75.367-24.124-121.504-52.383c-57.25-35.064-112.852-80.899-103.131-96.771
			c2.746-4.485,9.559-5.657,20.82-3.589l-0.807,4.396c-8.725-1.605-14.627-1.043-16.203,1.525
			c-2.297,3.751,2.77,14.643,23.879,33.959c19.236,17.604,46.859,37.727,77.777,56.665c30.918,18.937,61.393,34.397,85.814,43.538
			c26.801,10.029,38.803,9.59,41.1,5.841c1.576-2.575-0.613-8.094-6.014-15.146l3.549-2.719c6.973,9.106,9.025,15.713,6.277,20.198
			C1074.632,365.15,1070.621,366.55,1064.96,366.55z"/>
		<circle fill="#FFFFFF" cx="943.318" cy="226.843" r="25.027"/>
		<path fill="#FFFFFF" d="M950.57,347.353c9.213,0,16.684,7.473,16.684,16.684c0,9.214-7.471,16.685-16.684,16.685
			c-9.215,0-16.688-7.471-16.688-16.685C933.884,354.825,941.355,347.353,950.57,347.353z"/>
		<circle fill="#FFFFFF" cx="1008.021" cy="306.839" r="16.684"/>
	</g>
	<g>
		<path fill="#FFE3E3" d="M829.701,137.61v28.131l14.559,16.727c0,0,6.129-2.281,6.129-17.487l2.301-22.048L829.701,137.61z"/>
		<path fill="#FFE3E3" d="M844.259,165.741c0,0-23.75-15.966-24.518-21.288c-0.768-5.322-34.479-29.651-29.117-14.445
			c5.365,15.206,22.221,22.048,22.221,22.048s13.025,34.973,24.52,34.213C848.857,185.508,848.857,171.063,844.259,165.741z"/>
		<polygon fill="#FFB9B9" points="858.052,336.805 860.349,350.491 848.089,347.45 848.089,336.805 		"/>
		<path fill="#2F2E41" d="M855.753,344.409c0,0-14.17-8.33-14.748-4.545c-0.576,3.784-6.707,18.23-9.771,19.75
			c-3.063,1.521-6.895,18.248,0,17.487c5.342-0.589,24.93-10.755,33.492-15.31c2.189-1.172,3.072-3.836,2.012-6.068
			c-0.502-0.922-0.85-1.918-1.023-2.951C865.712,351.25,855.753,344.409,855.753,344.409z"/>
		<path fill="#2F2E41" d="M862.646,190.07c0,0-55.93,25.85-50.566,45.618c5.363,19.767,25.285,103.398,25.285,103.398
			s22.219,5.322,23.75,0c1.531-5.322-14.557-88.193-13.023-91.234s29.881-22.809,29.881-22.809l58.229-24.329l-24.516-22.809
			L862.646,190.07z"/>
		<polygon fill="#FFB9B9" points="820.509,341.368 813.611,358.854 825.873,364.176 833.533,350.491 		"/>
		<path fill="#FFE3E3" d="M861.882,65.383c0,0,6.895,9.123,1.533,13.685c-5.363,4.562-1.533,21.288-1.533,21.288l6.895,19.007
			l27.582-5.322V82.869l-1.529-15.206c0,0-13.793-12.925-15.324-22.809C877.972,34.97,861.882,65.383,861.882,65.383z"/>
		<path fill="#2F2E41" d="M907.853,183.988c0,0-36.012,39.535-36.012,41.055c0,1.521-19.154,32.693-19.154,32.693l-37.543,82.871
			c0,0,14.557,19.768,20.688,18.247c6.129-1.521,49.803-89.714,49.803-89.714s7.662-19.768,28.35-24.329
			c20.688-4.563,36.775-20.528,29.115-38.775C935.435,187.789,907.853,183.988,907.853,183.988z"/>
		<ellipse fill="#FFE9E9" cx="861.882" cy="46.375" rx="24.516" ry="24.329"/>
		<path fill="#F2F2F2" d="M862.646,85.911c0,0,3.066,17.486,6.131,19.007s5.363,6.843,12.26-0.76
			c6.895-7.603,13.023-22.809,13.023-22.809l23.754,28.891l2.297,79.83c0,0-26.814-6.842-35.244,0
			c-8.428,6.843-26.814,6.083-26.814,6.083l3.83-15.206l-3.066-25.85l0.768-23.569l0.768-16.727L862.646,85.911z"/>
		<path fill="#3F3D56" d="M865.347,73.113c0,0-10.361,5.194-11.127,8.235c-0.768,3.041-14.559,9.124-14.559,9.124
			s-5.363,5.322-5.363,8.363s18.391,38.014,18.391,38.014s3.828,23.569,2.297,28.131s3.066,22.048,3.066,22.048l-9.195,10.644h8.43
			c0,0,9.193-4.562,9.193-6.843c0-2.281-1.533-18.247-2.299-25.089c-0.766-6.843-0.766-31.172,0.766-39.535
			c1.533-8.363,0.768-30.412,0.768-35.733C865.712,85.15,865.347,73.113,865.347,73.113z"/>
		<path fill="#3F3D56" d="M889.082,61.569c0,0,3.447,0.772,13.408,3.814c9.961,3.041,25.283,7.603,30.646,13.685
			c3.766,4.498,7.1,9.334,9.961,14.445l-3.066,54.741c0,0,6.133,11.404,5.365,17.487s-6.896,6.843-2.299,19.768
			c4.596,12.925,13.791,24.329,5.363,25.85c-8.43,1.521-30.646-3.801-40.607-0.76S886.4,199.195,886.4,199.195
			s15.324,1.521,13.025-4.562s-27.584-74.508-22.221-89.714C882.57,89.712,889.082,61.569,889.082,61.569z"/>
		<path fill="#3F3D56" d="M838.13,95.034l-3.832,3.041c0,0-10.727,38.014-7.66,41.816c3.063,3.801,27.582,12.165,29.115,6.842
			C857.287,141.412,838.13,95.034,838.13,95.034z"/>
		<path fill="#FFE3E3" d="M951.525,121.644c0,0,11.494,32.692,11.494,41.816s-1.533,62.344-1.533,62.344
			s-0.766,22.808-16.855,13.685c-16.09-9.123,0-15.206,0-15.206s-0.766-60.063-6.896-68.426c-6.129-8.363-8.428-20.528-8.428-20.528
			L951.525,121.644z"/>
		<path fill="#2F2E41" d="M825.873,358.094c0,0-11.494-6.083-13.793-1.521s-14.557,29.652-13.025,32.693
			c1.533,3.041,9.961,15.205,19.92,12.164c9.963-3.041,10.729-19.008,10.729-19.008l0.766-18.246L825.873,358.094z"/>
		<path fill="#2F2E41" d="M857.082,40.499c1.688,0.789,3.691,1.26,4.754,2.784c0.787,1.129,0.863,2.596,1.438,3.845
			c1.299,2.566,4.389,3.687,7.049,2.558c0.314-1.515,1.201-2.852,2.48-3.736c1.326-0.865,3.063-0.771,4.285,0.233
			c1.58,1.494,1.021,4.1,1.758,6.137c0.691,1.434,1.645,2.729,2.809,3.821c1.678,1.92,3.014,4.171,5.031,5.733
			c2.02,1.562,5.084,2.239,7.09,0.661c1.688-1.328,2.037-3.776,1.627-5.874c-0.408-2.097-1.426-4.029-2-6.088
			c-1.859-6.691,1.109-13.836,0.189-20.718c-1.178-8.818-8.73-15.784-17.162-18.807c-3.508-1.417-7.35-1.822-11.078-1.165
			c-3.855,0.854-7.148,3.29-10.844,4.683c-3.947,1.49-8.242,1.75-12.375,2.621s-8.385,2.555-10.781,6.006
			c-1.674,2.407-2.25,5.397-3.635,7.977c-1.598,2.945-4.182,5.243-7.307,6.494l4.369-0.247c-0.732,1.935-1.928,3.665-3.48,5.041
			c2.049,0.415,4.178,0.135,6.047-0.793c-0.068,1.801-0.883,3.493-2.254,4.676c3.361-0.101,6.906-0.254,9.746-2.041
			c1.391-0.875,2.527-2.094,3.836-3.086c2.791-2.115,6.254-3.118,9.629-4.08c1.771-0.504,3.906-1.207,5.508-0.075
			C855.144,38.001,855.353,39.692,857.082,40.499z"/>
		<path fill="#3F3D56" d="M931.605,84.39l11.492,9.124l15.324,34.973c0,0-21.453,16.727-26.816,14.446
			c-5.363-2.281-14.559-42.576-14.559-42.576L931.605,84.39z"/>
		<path fill="#2F2E41" d="M759.23,126.121l48.359,26.359c1.059,0.698,2.49,0.413,3.191-0.639c0.074-0.111,0.141-0.229,0.193-0.352
			l11.848-24.572c0.465-1.448-0.211-3.014-1.586-3.684l-40.148-20.536c-1.023-0.611-2.35-0.36-3.07,0.583l-20.059,18.749
			c-0.805,1.424-0.291,3.225,1.141,4.023C759.142,126.077,759.185,126.1,759.23,126.121z"/>
		<polygon fill="#E2E0FF" points="762.457,122.491 807.794,148.204 819.857,126.628 780.964,105.641 		"/>
		<path fill="#F2F2F2" d="M801.371,114.335c-0.236-0.281-0.623-0.347-0.865-0.147c-0.24,0.2-0.244,0.59-0.008,0.871
			c0.234,0.281,0.621,0.346,0.863,0.146C801.603,115.005,801.607,114.616,801.371,114.335z"/>
		
			<ellipse transform="matrix(-0.6383 -0.7698 0.7698 -0.6383 1179.3276 827.6635)" fill="#F2F2F2" cx="784.115" cy="136.761" rx="0.444" ry="0.378"/>
	</g>
	<g>
		<path fill="#2F2E41" d="M279.8,783.949l6.381-4.74c0,0,4.225,23.596-0.489,27.133c-4.714,3.535-22.391,9.428-22.391,16.498
			s-40.068,16.498-41.246,5.893c-1.179-10.607,3.535-16.5,3.535-16.5s18.855-18.855,21.212-22.391
			c2.357-3.535,8.25-10.605,8.25-10.605L279.8,783.949z"/>
		<path fill="#2F2E41" d="M185.522,490.511c0,0,0.177,1.037,0.483,2.934c0.283,1.686,0.672,4.066,1.143,7
			c4.95,30.205,19.386,119.121,18.408,122.055c-1.179,3.537-9.428,16.5,0,20.035c0.907,0.342,1.885,1.449,2.934,3.193
			c2.024,3.756,3.693,7.693,4.985,11.762c5.622,16.309,11.632,42.412,15.108,60.49c1.521,7.941,2.558,14.33,2.864,17.676
			c0.106,0.773,0.119,1.557,0.036,2.334c-1.179,4.713,7.07,21.213,10.606,25.926c3.535,4.715,9.428,9.432,8.249,14.146
			c-1.178,4.713,29.463,17.676,32.998,9.428c3.535-8.25,3.535-12.965,4.713-15.32c1.179-2.357,2.357-18.855-3.535-21.213
			s-2.356-43.604-8.249-51.852c-1.968-2.746-4.974-12.045-8.12-23.23c-1.236-4.383-2.486-9.051-3.711-13.729
			c-4.974-19.174-9.381-38.465-9.381-38.465l1.178-137.885l-64.815-8.248l-1.662,3.664l-3.312,7.271L185.522,490.511z"/>
		<path fill="#2F2E41" d="M181.987,716.777c0,0-9.428-9.428-14.142,0c-4.714,9.428-9.428,45.961-17.677,54.209
			c-8.249,8.25-18.855,49.496-7.071,51.854c11.785,2.355,24.748-3.531,25.926-10.604c1.178-7.07,25.926-43.605,25.926-47.139
			c0-3.535-16.498-16.5-16.498-16.5L181.987,716.777z"/>
		<path fill="#2F2E41" d="M326.937,425.697c0,0-15.319,137.88-18.855,150.843c-3.535,12.963-22.391,62.459-28.282,70.707
			c-5.893,8.25-43.604,75.422-48.317,78.957c-4.714,3.535-14.142,12.963-14.142,12.963s-17.677,17.682-20.034,21.217
			c-2.357,3.531-22.391-7.07-23.569-14.145c-1.179-7.072,1.178-18.854,2.357-23.57c1.178-4.713-2.357-11.781,1.178-15.316
			c3.536-3.535,21.212-21.211,21.212-29.461s30.64-56.566,42.424-67.172c11.785-10.607,9.427-28.283,9.427-28.283v-71.893
			l-64.814-20.029c0,0,3.535-56.566,11.784-56.566C205.556,433.947,313.975,415.09,326.937,425.697z"/>
		<circle fill="#BFAAAA" cx="231.482" cy="190.005" r="38.889"/>
		<path fill="#BFAAAA" d="M244.445,220.645c0,0,4.714,17.677,10.606,22.391c5.892,4.714-15.32,24.748-15.32,24.748l-40.068,2.357
			l-7.071-22.391c0,0,12.963-25.926,9.428-42.425S244.445,220.645,244.445,220.645z"/>
		<path fill="#8988AA" d="M260.944,240.679c0,0-10.607,1.178-12.964,4.714c-2.357,3.535-18.855,14.142-31.818,11.785
			s-21.212-5.893-23.569-4.714c-2.357,1.178-7.07,25.926-7.07,25.926l12.963,37.711l-2.357,103.706l-3.535,28.281
			c0,0-7.071-9.428,21.212-3.535c28.283,5.893,64.815-4.715,76.6-5.893c11.785-1.178,31.818-4.713,32.997-11.785
			c1.179-7.068-3.536-32.996-3.536-32.996l-18.855-78.957l-11.783-42.425L260.944,240.679z"/>
		<path fill="#42415E" d="M249.797,235.36c0,0,9.968-5.288,13.504-0.574c3.535,4.714,48.317,11.785,48.317,15.32
			c0,3.535,9.428,98.991,7.07,107.24c-2.357,8.25,4.714,17.677,4.714,17.677l8.249,35.354c0,0,22.391,67.171,12.963,69.527
			c-9.428,2.357-17.677,0-21.212,0c-3.536,0-2.356-44.779-11.784-56.564c-9.428-11.783-22.391-41.246-24.748-47.138
			s-31.818-87.206-30.641-96.634C257.408,270.14,249.797,235.36,249.797,235.36z"/>
		<path fill="#42415E" d="M200.842,240.679c0,0-9.428,0-10.606,2.357c-1.178,2.357-12.963,17.677-17.677,21.212
			c-4.714,3.535-21.212,18.855-21.212,22.391c0,3.535,34.176,29.461,34.176,29.461s14.141,69.529,7.07,93.1
			c-7.07,23.568-17.677,80.132-12.963,83.669c4.714,3.535,15.32,4.713,15.32,0c0-4.715,7.071-55.389,12.963-65.994
			c5.892-10.603,23.569-77.777,16.499-96.632C217.342,311.387,200.842,240.679,200.842,240.679z"/>
		<path fill="#BFAAAA" d="M356.399,357.346c0,0,1.178,36.532-11.785,55.389c-12.963,18.853-21.212,40.066-21.212,40.066
			s-21.212-5.893-24.748-12.965c-3.535-7.068-25.926-1.178-25.926-3.535c0-2.355,27.104-14.14,29.462-16.496
			c2.356-2.357,10.605-2.357,15.319-7.07c4.714-4.715,5.893-15.321,5.893-15.321l4.714-30.64L356.399,357.346z"/>
		<path fill="#2F2E41" d="M258.267,166.027c2.992-0.271,6.078-0.571,8.723-1.997c5.924-3.195,7.495-12.294,2.984-17.291
			c-1.243-1.271-2.634-2.39-4.143-3.332l-8.958-6.097c-3.962-2.697-8.017-5.438-12.638-6.709c-4.179-1.149-8.594-1.031-12.92-0.763
			c-8.398,0.522-16.849,1.601-24.749,4.5c-7.899,2.9-15.269,7.751-20.053,14.673c-7.584,10.974-7.688,25.775-3.511,38.444
			c4.177,12.669,12.112,23.701,19.931,34.51l4.057-19.795c0.361-1.763,0.829-3.695,2.295-4.739
			c3.645-2.593,8.103,2.731,12.576,2.697c2.874-0.022,5.287-2.386,6.376-5.046c1.089-2.66,1.161-5.605,1.413-8.468
			c0.534-6.064,2.653-14.502,8.396-17.847C243.398,165.653,252.252,166.573,258.267,166.027z"/>
		<path opacity="0.1" enable-background="new    " d="M256.085,491.462c0,0-3.979,115.129-6.336,118.664s0-119.025,0-119.025
			L256.085,491.462z"/>
		<path fill="#42415E" d="M302.19,250.107h9.428c0,0,40.066,54.209,35.354,57.745c-4.715,3.535,0,12.963,0,12.963l9.428,17.677
			c0,0,11.785,10.606,8.249,12.963c-3.536,2.357-8.249,11.785-8.249,11.785s-23.569-3.536-30.641,10.606l-15.284-19.295
			L302.19,250.107z"/>
		
			<rect x="284.291" y="271.756" transform="matrix(-0.9243 0.3817 -0.3817 -0.9243 696.912 470.4981)" fill="#2F2E41" width="35.001" height="65.226"/>
		<path fill="#BFAAAA" d="M278.62,344.384c0,0-84.849,70.708-98.99,48.317c-14.142-22.391,15.32-41.246,15.32-41.246
			s25.926,1.178,55.387-17.677l29.463-12.963c0,0,26.896-38.399,36.061-23.777C325.026,311.659,300.216,337.108,278.62,344.384z"/>
		<path fill="#42415E" d="M164.31,281.925l-12.963,4.714v35.354l-4.714,7.07c0,0,1.179,14.142,4.714,17.677
			c3.536,3.535,10.606,2.357,8.25,10.606c-1.417,5.378-1.816,10.974-1.179,16.499c0,0,21.212,27.104,22.391,23.569
			c1.178-3.536,17.677-47.139,20.034-47.139c2.357,0-23.569-68.351-23.569-68.351L164.31,281.925L164.31,281.925z"/>
		<path fill="#2F2E41" d="M319.277,460.46c0,0,12.185-11.785,6.093-12.373c-6.093-0.59-27.305-12.375-30.84-6.482
			C290.995,447.498,319.277,460.46,319.277,460.46z"/>
	</g>
	<path fill="#D0CDE1" d="M712.845,199.619c-0.881-0.64-1.84-1.36-2.801-2l-9.199,13.12c3.039,2.16,5.6,4.08,7.6,5.76
		c3.68,3.2,5.6,5.76,5.76,7.6c-3.139,0.025-6.265-0.406-9.279-1.28c-15.26-4.255-29.992-10.213-43.92-17.76l-4.24-2.16
		c-12.4-6.24-27.84-13.92-37.76-20.32c-2.744-1.601-5.316-3.478-7.681-5.6c2.08,0.08,5.04,0.32,9.28,0.88
		c3.04,0.48,6.641,1.2,11.12,2.16l3.44-15.68c-1.761-0.4-3.44-0.72-5.041-1.04c-22.08-4.32-32.64-2.56-36.08,5.84
		c-4.64,11.28,5.041,20.64,23.201,31.12c8.879,5.2,19.92,10.72,32.319,16.96l4.319,2.08c12.291,6.438,25.047,11.947,38.16,16.48
		c6.791,2.574,13.946,4.059,21.201,4.4c2.564,0.049,5.115-0.385,7.52-1.28c3.676-1.273,6.621-4.074,8.08-7.68
		C734.125,218.259,724.685,208.339,712.845,199.619z"/>
	<path fill="#8988AA" d="M653.884,219.299c12.291,6.438,25.047,11.947,38.16,16.48c-7.938,5.507-17.378,8.44-27.039,8.4
		c-24.916,0-45.677-19.091-47.76-43.92c8.879,5.2,19.92,10.72,32.319,16.96L653.884,219.299z"/>
	<path fill="#8988AA" d="M713.005,196.179c0,1.2-0.08,2.32-0.16,3.44c-0.372,5.856-1.865,11.587-4.4,16.88
		c-0.967,2.215-2.146,4.332-3.52,6.32c-15.26-4.255-29.992-10.213-43.92-17.76l-4.24-2.16c-12.4-6.24-27.84-13.92-37.76-20.32
		c0.412-1.611,0.947-3.189,1.6-4.72c2.236-5.406,5.465-10.344,9.52-14.56c18.123-19.299,48.459-20.253,67.759-2.13
		C707.548,170.245,713.023,182.92,713.005,196.179z"/>
	<path fill="#575A89" d="M1076.156,81.407h-5.403l-8.226-8.224v-5.404c0-1.88-1.521-3.407-3.404-3.407
		c-1.887,0-3.407,1.527-3.407,3.407v5.404l-8.226,8.224h-5.403c-1.883,0-3.407,1.526-3.407,3.407c0,1.88,1.524,3.406,3.407,3.406
		h5.403l8.226,8.225v5.403c0,1.881,1.521,3.407,3.407,3.407c1.884,0,3.404-1.526,3.404-3.407v-5.403l8.229-8.225h5.4
		c1.883,0,3.407-1.526,3.407-3.406C1079.563,82.933,1078.039,81.407,1076.156,81.407z"/>
	<path fill="#FFDFF2" d="M1050.434,469.358h-2.974l-4.529-4.527v-2.975c0-1.035-0.836-1.876-1.874-1.876
		c-1.039,0-1.875,0.841-1.875,1.876v2.975l-4.529,4.527h-2.974c-1.037,0-1.877,0.841-1.877,1.876s0.84,1.876,1.877,1.876h2.974
		l4.529,4.527v2.975c0,1.036,0.836,1.876,1.875,1.876c1.038,0,1.874-0.84,1.874-1.876v-2.975l4.53-4.527h2.973
		c1.037,0,1.877-0.841,1.877-1.876S1051.471,469.358,1050.434,469.358z"/>
	<path fill="#D0CDE1" d="M95.337,53.541h-5.403l-8.226-8.225v-5.403c0-1.88-1.521-3.407-3.404-3.407
		c-1.887,0-3.407,1.527-3.407,3.407v5.403l-8.226,8.225h-5.403c-1.883,0-3.407,1.526-3.407,3.407c0,1.88,1.524,3.406,3.407,3.406
		h5.403l8.226,8.225v5.403c0,1.881,1.521,3.407,3.407,3.407c1.884,0,3.404-1.526,3.404-3.407v-5.403l8.229-8.225h5.4
		c1.883,0,3.407-1.526,3.407-3.406C98.744,55.067,97.22,53.541,95.337,53.541z"/>
	<path fill="#BDBCC2" d="M133.876,111.29h-5.403l-8.226-8.225v-5.403c0-1.88-1.521-3.407-3.404-3.407
		c-1.887,0-3.407,1.527-3.407,3.407v5.403l-8.226,8.225h-5.403c-1.883,0-3.407,1.526-3.407,3.407c0,1.88,1.524,3.406,3.407,3.406
		h5.403l8.226,8.225v5.403c0,1.881,1.521,3.407,3.407,3.407c1.884,0,3.404-1.526,3.404-3.407v-5.403l8.229-8.225h5.4
		c1.883,0,3.407-1.526,3.407-3.406C137.283,112.816,135.759,111.29,133.876,111.29z"/>
	<path fill="#575A89" d="M1069.343,118.883c1.88,0,3.404,1.525,3.404,3.407s-1.524,3.407-3.404,3.407
		c-1.884,0-3.408-1.525-3.408-3.407S1067.459,118.883,1069.343,118.883z"/>
	<path fill="#FFDFF2" d="M1081.608,491.631c1.879,0,3.404,1.525,3.404,3.407s-1.525,3.407-3.404,3.407
		c-1.885,0-3.408-1.525-3.408-3.407S1079.723,491.631,1081.608,491.631z"/>
	<path fill="#D0CDE1" d="M137.285,53.54c1.88,0,3.404,1.525,3.404,3.407s-1.524,3.407-3.404,3.407c-1.884,0-3.408-1.525-3.408-3.407
		S135.401,53.54,137.285,53.54z"/>
	<path fill="#DFD9D9" d="M179.304,98.957c1.88,0,3.404,1.525,3.404,3.407s-1.524,3.407-3.404,3.407
		c-1.884,0-3.408-1.525-3.408-3.407S177.42,98.957,179.304,98.957z"/>
	<path fill="#FFEFF8" d="M57.862,186.597c1.88,0,3.404,1.525,3.404,3.407s-1.524,3.407-3.404,3.407
		c-1.884,0-3.408-1.525-3.408-3.407S55.979,186.597,57.862,186.597z"/>
	<path fill="#FFEFF8" d="M273.577,60.964c1.88,0,3.404,1.525,3.404,3.407s-1.524,3.407-3.404,3.407
		c-1.884,0-3.408-1.525-3.408-3.407S271.693,60.964,273.577,60.964z"/>
	<path fill="#575A89" d="M1011.429,78c1.88,0,3.404,1.525,3.404,3.407s-1.524,3.407-3.404,3.407c-1.884,0-3.408-1.525-3.408-3.407
		S1009.545,78,1011.429,78z"/>
	<circle fill="#FFDFF2" cx="1011.428" cy="537.192" r="3.407"/>
</g>
</svg>
