<svg xmlns="http://www.w3.org/2000/svg" width="21" height="28" viewBox="0 0 21 28">
  <path fill="#FFF" fill-rule="evenodd" d="M10.4726391,0 C16.256518,0 20.9452783,4.86210393 20.9452783,10.8598131 L20.9452783,17.1401869 C20.9452783,23.1378961 16.256518,28 10.4726391,28 C4.68876025,28 0,23.1378961 0,17.1401869 L0,10.8598131 C0,4.86210393 4.68876025,0 10.4726391,0 Z M10.4231094,6.43678161 C8.00738703,6.43678161 6.04905709,8.45837457 6.04905709,10.9521359 L6.0489582,11.6293424 L6.04391114,11.629439 L6.04391114,21.5632184 L6.12134606,21.5622893 C7.89736741,21.5196302 9.3244504,20.0133317 9.3244504,18.1613975 L9.32428754,17.9201512 C9.67539389,18.0139272 10.0436076,18.0638188 10.4231094,18.0638188 C12.8388318,18.0638188 14.7971618,16.0422259 14.7971618,13.5484646 L14.7971618,10.9521359 C14.7971618,8.45837457 12.8388318,6.43678161 10.4231094,6.43678161 Z M10.4231094,9.82329731 C11.02704,9.82329731 11.5166225,10.3286955 11.5166225,10.9521359 L11.5166225,13.5484646 C11.5166225,14.1719049 11.02704,14.6773031 10.4231094,14.6773031 C9.81917883,14.6773031 9.32959634,14.1719049 9.32959634,13.5484646 L9.32959634,10.9521359 C9.32959634,10.3286955 9.81917883,9.82329731 10.4231094,9.82329731 Z"/>
</svg>
