<?xml version="1.0" encoding="utf-8"?>
<!-- Generator: Adobe Illustrator 16.0.0, SVG Export Plug-In . SVG Version: 6.00 Build 0)  -->
<!DOCTYPE svg PUBLIC "-//W3C//DTD SVG 1.1//EN" "http://www.w3.org/Graphics/SVG/1.1/DTD/svg11.dtd">
<svg version="1.1" id="Calque_1" xmlns="http://www.w3.org/2000/svg" xmlns:xlink="http://www.w3.org/1999/xlink" x="0px" y="0px"
	 width="1920px" height="1080px" viewBox="0 0 1920 1080" enable-background="new 0 0 1920 1080" xml:space="preserve">
<path fill="#575A89" d="M1815.088,188.372h-5.404l-8.225-8.224v-5.404c0-1.88-1.521-3.407-3.404-3.407
	c-1.887,0-3.408,1.527-3.408,3.407v5.404l-8.225,8.224h-5.404c-1.883,0-3.406,1.526-3.406,3.407c0,1.88,1.523,3.406,3.406,3.406
	h5.404l8.225,8.225v5.403c0,1.881,1.521,3.407,3.408,3.407c1.883,0,3.404-1.526,3.404-3.407v-5.403l8.229-8.225h5.4
	c1.883,0,3.406-1.526,3.406-3.406C1818.494,189.898,1816.971,188.372,1815.088,188.372z"/>
<path fill="#FFDFF2" d="M1789.365,576.322h-2.973l-4.529-4.527v-2.975c0-1.035-0.836-1.875-1.875-1.875s-1.875,0.84-1.875,1.875
	v2.975l-4.529,4.527h-2.973c-1.037,0-1.877,0.842-1.877,1.877s0.84,1.875,1.877,1.875h2.973l4.529,4.527v2.975
	c0,1.037,0.836,1.877,1.875,1.877s1.875-0.84,1.875-1.877v-2.975l4.529-4.527h2.973c1.037,0,1.877-0.84,1.877-1.875
	S1790.402,576.322,1789.365,576.322z"/>
<path fill="#D0CDE1" d="M834.269,160.505h-5.403l-8.226-8.225v-5.403c0-1.88-1.521-3.407-3.404-3.407
	c-1.887,0-3.407,1.527-3.407,3.407v5.403l-8.226,8.225h-5.403c-1.883,0-3.407,1.526-3.407,3.407c0,1.88,1.524,3.406,3.407,3.406
	h5.403l8.226,8.225v5.403c0,1.881,1.521,3.407,3.407,3.407c1.884,0,3.404-1.526,3.404-3.407v-5.403l8.229-8.225h5.4
	c1.883,0,3.407-1.526,3.407-3.406C837.676,162.032,836.151,160.505,834.269,160.505z"/>
<path fill="#BDBCC2" d="M872.808,218.255h-5.403l-8.226-8.225v-5.403c0-1.88-1.521-3.407-3.404-3.407
	c-1.887,0-3.407,1.527-3.407,3.407v5.403l-8.226,8.225h-5.403c-1.883,0-3.407,1.526-3.407,3.407c0,1.88,1.524,3.406,3.407,3.406
	h5.403l8.226,8.225v5.403c0,1.881,1.521,3.407,3.407,3.407c1.884,0,3.404-1.526,3.404-3.407v-5.403l8.229-8.225h5.4
	c1.883,0,3.407-1.526,3.407-3.406C876.215,219.781,874.69,218.255,872.808,218.255z"/>
<path fill="#D0CDE1" d="M1848.229,757.861h-5.403l-8.226-8.225v-5.404c0-1.879-1.521-3.406-3.404-3.406
	c-1.887,0-3.407,1.527-3.407,3.406v5.404l-8.226,8.225h-5.403c-1.883,0-3.407,1.525-3.407,3.406s1.524,3.406,3.407,3.406h5.403
	l8.226,8.225v5.404c0,1.881,1.521,3.406,3.407,3.406c1.884,0,3.404-1.525,3.404-3.406v-5.404l8.229-8.225h5.4
	c1.883,0,3.407-1.525,3.407-3.406S1850.112,757.861,1848.229,757.861z"/>
<path fill="#BDBCC2" d="M806.31,921.571h-5.403l-8.226-8.225v-5.403c0-1.88-1.521-3.407-3.404-3.407
	c-1.887,0-3.407,1.527-3.407,3.407v5.403l-8.226,8.225h-5.403c-1.883,0-3.407,1.526-3.407,3.407c0,1.88,1.524,3.406,3.407,3.406
	h5.403l8.226,8.225v5.403c0,1.881,1.521,3.407,3.407,3.407c1.884,0,3.404-1.526,3.404-3.407v-5.403l8.229-8.225h5.4
	c1.883,0,3.407-1.526,3.407-3.406C809.717,923.098,808.193,921.571,806.31,921.571z"/>
<path fill="#575A89" d="M1808.275,225.848c1.879,0,3.404,1.525,3.404,3.407s-1.525,3.407-3.404,3.407
	c-1.885,0-3.408-1.525-3.408-3.407S1806.391,225.848,1808.275,225.848z"/>
<path fill="#FFDFF2" d="M1820.539,598.596c1.879,0,3.404,1.525,3.404,3.408c0,1.881-1.525,3.406-3.404,3.406
	c-1.885,0-3.408-1.525-3.408-3.406C1817.131,600.121,1818.654,598.596,1820.539,598.596z"/>
<path fill="#D0CDE1" d="M876.217,160.505c1.88,0,3.404,1.525,3.404,3.407s-1.524,3.407-3.404,3.407
	c-1.884,0-3.408-1.525-3.408-3.407S874.333,160.505,876.217,160.505z"/>
<path fill="#DFD9D9" d="M918.235,205.922c1.88,0,3.404,1.525,3.404,3.407s-1.524,3.407-3.404,3.407
	c-1.884,0-3.408-1.525-3.408-3.407S916.352,205.922,918.235,205.922z"/>
<path fill="#DFD9D9" d="M1890.178,743.75c1.88,0,3.404,1.525,3.404,3.407s-1.524,3.407-3.404,3.407
	c-1.884,0-3.408-1.525-3.408-3.407S1888.294,743.75,1890.178,743.75z"/>
<path fill="#DFD9D9" d="M837.678,328.286c1.88,0,3.404,1.525,3.404,3.407s-1.524,3.407-3.404,3.407
	c-1.884,0-3.408-1.525-3.408-3.407S835.794,328.286,837.678,328.286z"/>
<path fill="#FFEFF8" d="M796.794,293.562c1.88,0,3.404,1.525,3.404,3.407s-1.524,3.407-3.404,3.407
	c-1.884,0-3.408-1.525-3.408-3.407S794.91,293.562,796.794,293.562z"/>
<circle fill="#FFEFF8" cx="1012.508" cy="171.336" r="3.407"/>
<path fill="#575A89" d="M1750.361,184.964c1.879,0,3.404,1.525,3.404,3.407s-1.525,3.407-3.404,3.407
	c-1.885,0-3.408-1.525-3.408-3.407S1748.477,184.964,1750.361,184.964z"/>
<path fill="#575A89" d="M854.004,778.303H848.6l-8.225-8.225v-5.403c0-1.88-1.521-3.407-3.404-3.407
	c-1.887,0-3.408,1.527-3.408,3.407v5.403l-8.225,8.225h-5.404c-1.883,0-3.406,1.526-3.406,3.407c0,1.88,1.523,3.406,3.406,3.406
	h5.404l8.225,8.225v5.403c0,1.881,1.521,3.407,3.408,3.407c1.883,0,3.404-1.526,3.404-3.407v-5.403l8.229-8.225h5.4
	c1.883,0,3.406-1.526,3.406-3.406C857.411,779.829,855.887,778.303,854.004,778.303z"/>
<path fill="#575A89" d="M789.278,774.896c1.879,0,3.404,1.525,3.404,3.407s-1.525,3.407-3.404,3.407
	c-1.885,0-3.408-1.525-3.408-3.407S787.393,774.896,789.278,774.896z"/>
<circle fill="#FFDFF2" cx="1750.359" cy="644.157" r="3.407"/>
<g>
	<polygon fill="#575A89" points="1752.507,225.848 1749.487,251.009 1752.507,276.167 1756.036,251.009 	"/>
	<polygon fill="#575A89" points="1778.172,251.009 1753.514,247.487 1729.358,251.009 1754.023,254.529 	"/>
</g>
<g>
	<polygon fill="#BDBCC2" points="796.405,271.808 793.386,296.969 796.405,322.127 799.935,296.969 	"/>
	<polygon fill="#BDBCC2" points="822.07,296.969 797.412,293.447 773.257,296.969 797.922,300.489 	"/>
</g>
<g>
	<polygon fill="#575A89" points="883.631,839.459 869.037,860.088 860.482,883.736 875.076,863.107 	"/>
	<polygon fill="#575A89" points="894.192,873.17 874.07,859.082 851.425,850.527 871.554,865.121 	"/>
</g>
<g>
	<polygon fill="#575A89" points="1866.808,647.564 1852.214,668.193 1843.659,691.842 1858.253,671.213 	"/>
	<polygon fill="#575A89" points="1877.369,681.275 1857.247,667.188 1834.602,658.633 1854.73,673.227 	"/>
</g>
</svg>
